<svg id="Layer_1" data-name="Layer 1" xmlns="http://www.w3.org/2000/svg" viewBox="0 0 83.5 85.73">
  <defs>
    <style>
      .cls-1 {
        fill: none;
      }

      .cls-2 {
        fill: #fff;
      }
    </style>
  </defs>
  <title>feec3dee-e89f-4f90-9c02-8fe815950299</title>
  <g>
    <path class="cls-1" d="M83.5,42.865c0,23.674-18.692,42.865-41.75,42.865S0,66.539,0,42.865,18.692,0,41.75,0,83.5,19.191,83.5,42.865"/>
    <path class="cls-2" d="M41.7,3.231C20.38,3.231,3.1,20.976,3.1,42.865A39.629,39.629,0,0,0,27.631,79.772c-0.338-3.136-.642-7.946.134-11.369,0.7-3.093,4.527-19.7,4.527-19.7a14.624,14.624,0,0,1-1.155-5.884c0-5.511,3.111-9.625,6.985-9.625,3.293,0,4.884,2.539,4.884,5.583,0,3.4-2.109,8.484-3.2,13.2a5.713,5.713,0,0,0,5.716,7.162c6.861,0,12.135-7.428,12.135-18.149,0-9.489-6.641-16.124-16.124-16.124a16.929,16.929,0,0,0-17.431,17.2A15.691,15.691,0,0,0,26.978,51.1a1.208,1.208,0,0,1,.268,1.137c-0.293,1.252-.944,3.944-1.072,4.495-0.168.726-.56,0.879-1.291,0.53-4.822-2.3-7.836-9.541-7.836-15.354,0-12.5,8.847-23.984,25.506-23.984,13.391,0,23.8,9.8,23.8,22.89,0,13.659-8.389,24.652-20.032,24.652-3.911,0-7.589-2.086-8.848-4.551,0,0-1.936,7.567-2.4,9.422-0.872,3.443-3.224,7.758-4.8,10.39A37.664,37.664,0,0,0,41.7,82.5c21.32,0,38.6-17.745,38.6-39.634S63.019,3.231,41.7,3.231Z"/>
  </g>
</svg>
